<svg width="65" height="18" viewBox="0 0 65 18" fill="none" xmlns="http://www.w3.org/2000/svg">
<path d="M14.582 1.19531V18H12.1797V10.8047H2.55859V18H0.15625V1.19531H2.55859V8.40234H12.1797V1.19531H14.582ZM28.9805 12.9375H20.7188V15.6914H28.9805V18H20.7188C20.4062 18 20.1094 17.9414 19.8281 17.8242C19.5469 17.6992 19.3008 17.5352 19.0898 17.332C18.8867 17.1211 18.7227 16.875 18.5977 16.5938C18.4805 16.3125 18.4219 16.0117 18.4219 15.6914V7.82812C18.4219 7.50781 18.4805 7.20703 18.5977 6.92578C18.7227 6.64453 18.8867 6.40234 19.0898 6.19922C19.3008 5.98828 19.5469 5.82422 19.8281 5.70703C20.1094 5.58203 20.4062 5.51953 20.7188 5.51953H26.6719C26.9922 5.51953 27.293 5.58203 27.5742 5.70703C27.8555 5.82422 28.0977 5.98828 28.3008 6.19922C28.5117 6.40234 28.6758 6.64453 28.793 6.92578C28.918 7.20703 28.9805 7.50781 28.9805 7.82812V12.9375ZM20.7188 7.82812V10.6289H26.6719V7.82812H20.7188ZM32.5859 12.5508C32.5859 12.2305 32.6445 11.9336 32.7617 11.6602C32.8867 11.3789 33.0508 11.1328 33.2539 10.9219C33.4648 10.7109 33.7109 10.5469 33.9922 10.4297C34.2734 10.3047 34.5703 10.2422 34.8828 10.2422H40.8359V7.82812H33.3008V5.51953H40.8359C41.1562 5.51953 41.457 5.58203 41.7383 5.70703C42.0195 5.82422 42.2617 5.98828 42.4648 6.19922C42.6758 6.40234 42.8398 6.64453 42.957 6.92578C43.082 7.20703 43.1445 7.50781 43.1445 7.82812V18H40.8359V15.8906C40.8125 16.1797 40.7344 16.4531 40.6016 16.7109C40.4688 16.9688 40.2969 17.1953 40.0859 17.3906C39.8828 17.5781 39.6484 17.7266 39.3828 17.8359C39.1172 17.9453 38.8359 18 38.5391 18H34.8828C34.5703 18 34.2734 17.9414 33.9922 17.8242C33.7109 17.6992 33.4648 17.5352 33.2539 17.332C33.0508 17.1211 32.8867 16.875 32.7617 16.5938C32.6445 16.3125 32.5859 16.0117 32.5859 15.6914V12.5508ZM34.8828 15.6914H40.8359V12.5508H34.8828V15.6914ZM46.75 7.82812C46.75 7.50781 46.8086 7.20703 46.9258 6.92578C47.0508 6.64453 47.2148 6.40234 47.418 6.19922C47.6289 5.98828 47.875 5.82422 48.1562 5.70703C48.4375 5.58203 48.7344 5.51953 49.0469 5.51953H55.4805V0.714844H57.7891V18H55.4805V15.8906C55.457 16.1797 55.3789 16.4531 55.2461 16.7109C55.1133 16.9688 54.9414 17.1953 54.7305 17.3906C54.5273 17.5781 54.293 17.7266 54.0273 17.8359C53.7617 17.9453 53.4805 18 53.1836 18H49.0469C48.7344 18 48.4375 17.9414 48.1562 17.8242C47.875 17.6992 47.6289 17.5352 47.418 17.332C47.2148 17.1211 47.0508 16.875 46.9258 16.5938C46.8086 16.3125 46.75 16.0117 46.75 15.6914V7.82812ZM49.0469 15.6914H55.4805V7.82812H49.0469V15.6914ZM61.3828 14.4961H64.8867V18H61.3828V14.4961Z" fill="#242635"/>
</svg>
